<svg xmlns="http://www.w3.org/2000/svg" xmlns:xlink="http://www.w3.org/1999/xlink" version="1.1" id="Layer_1" x="0px" y="0px" width="100%" viewBox="0 0 1024 656" enable-background="new 0 0 1024 656" xml:space="preserve">
<path fill="#ffffff" opacity="1.000000" stroke="none" d=" M41.477524,338.448486   C39.326691,332.610901 37.186661,327.182983 35.317116,321.663422   C33.653519,316.751862 34.912945,315.342499 39.786793,316.304047   C75.223778,323.295502 109.007431,334.593109 139.394608,354.682007   C147.749817,360.205597 155.676361,366.307343 162.787537,373.368622   C165.105896,375.670685 166.920837,376.683716 169.929779,374.493774   C171.598557,373.279205 173.906189,372.942383 175.958679,372.198029   C176.282394,370.301941 174.711075,369.549286 173.740387,368.566071   C148.529984,343.029846 135.810516,312.037201 132.737701,276.550079   C129.794159,242.555817 126.276382,208.611328 123.022263,174.643875   C122.688858,171.163696 122.443047,167.675217 122.138039,164.192200   C121.695641,159.140259 123.238937,157.994415 127.801376,160.168686   C147.412811,169.514755 166.118240,180.380569 183.265106,193.778946   C186.572464,196.363266 189.068253,197.569382 193.712601,195.531006   C201.043137,192.313644 209.324860,192.291412 217.340210,192.740234   C221.375458,192.966171 223.125763,191.481430 223.481781,187.596054   C223.979874,182.160034 224.685684,176.743057 225.323044,171.138428   C218.093292,169.030182 211.130280,169.267685 204.181198,169.342651   C199.964218,169.388138 194.790070,169.809128 194.422089,164.224792   C194.083786,159.090958 199.358047,159.294632 202.933167,158.495026   C209.465286,157.034073 216.115799,156.515289 222.797180,156.829102   C226.154526,156.986801 227.594604,155.721375 227.807724,152.295761   C228.065399,148.154327 228.712646,144.022583 229.431564,139.928864   C230.040619,136.460739 229.231491,134.369186 225.320801,134.317841   C219.677246,134.243744 214.082901,132.805084 208.382675,133.861786   C206.967361,134.124161 205.393906,133.806244 203.938797,133.521652   C201.288971,133.003418 199.180740,131.600555 198.898666,128.725922   C198.590820,125.588539 200.923874,124.319229 203.446411,123.659286   C211.226761,121.623825 219.184998,120.784164 227.198715,121.082504   C230.303436,121.198090 231.781235,120.608765 232.012192,117.233360   C232.318207,112.761055 233.076538,108.315910 233.731064,103.872437   C234.259796,100.282852 232.693054,98.758209 229.187454,98.276184   C222.894531,97.410896 216.603317,96.955246 210.257111,97.167168   C208.426834,97.228287 206.579681,97.315170 204.763321,97.144691   C201.662170,96.853622 199.230255,95.390396 198.851074,92.081635   C198.453705,88.613991 201.175339,87.514511 203.831192,86.885605   C211.643661,85.035614 219.571793,84.144150 227.616013,84.580368   C235.865280,85.027695 235.859146,85.030670 236.917694,77.091064   C237.533508,72.472076 238.097275,67.844444 238.815674,63.241173   C240.352371,53.394402 249.267181,46.623848 259.208923,47.265621   C284.631378,48.906734 310.068024,50.327595 335.492462,51.939503   C364.073059,53.751518 392.643188,55.728340 421.224060,57.536026   C444.988037,59.039059 468.806641,59.898933 492.508759,62.057297   C502.881866,63.001900 511.155609,60.615459 519.986084,55.256847   C542.471008,41.612274 567.420532,35.582073 593.627869,33.946259   C629.093628,31.732546 666.261353,63.184402 669.703308,97.657928   C671.207153,112.719864 671.311584,127.528229 669.645081,142.456650   C668.812561,149.914124 668.737732,149.964233 675.550842,152.443390   C685.255676,155.974808 687.532837,164.626404 688.938477,173.152084   C692.194763,192.901062 681.543518,202.815445 666.196045,203.440643   C660.021301,203.692184 662.318909,209.461487 661.008484,212.712616   C659.818726,215.664505 662.974304,215.571259 664.737671,215.949524   C685.803101,220.468536 705.737854,227.588196 722.995239,240.968430   C723.223450,241.145401 723.621765,241.103134 724.880310,241.340134   C725.018372,241.086288 725.335022,240.282959 725.834900,239.617126   C754.000793,202.099640 791.816711,177.647369 834.297668,159.499313   C844.877808,154.979477 855.671631,151.043625 866.589111,147.438095   C868.578186,146.781189 870.835144,145.301102 872.692627,147.126633   C874.633667,149.034363 873.393311,151.641907 872.901306,153.788467   C869.444153,168.871124 865.814697,183.914291 862.237732,198.969467   C854.621094,231.026840 847.236572,263.141846 839.300415,295.119934   C834.306519,315.241943 825.212341,333.683807 812.371155,349.899658   C807.418030,356.154449 805.638184,362.020355 807.284363,369.474731   C807.959900,372.533844 808.128235,375.704987 808.515991,378.736694   C810.616699,379.766907 811.879272,378.299164 813.226501,377.542938   C843.306335,360.657745 875.948608,351.840881 909.789490,346.764374   C921.489197,345.009277 933.259583,343.962738 945.054626,343.154297   C947.024841,343.019226 949.248718,342.495636 950.547546,344.514191   C951.755188,346.390991 950.250122,348.010376 949.423340,349.572968   C927.373291,391.245087 905.624756,433.081207 883.125793,474.509766   C866.114258,505.834045 841.468994,529.721375 809.031433,544.921326   C803.201538,547.653198 801.923218,552.258301 800.168945,557.199707   C799.453735,559.214233 800.937683,559.866882 802.292725,560.523254   C805.753967,562.199768 809.132019,564.018921 811.988281,566.628174   C817.667053,571.815857 817.845825,578.160278 812.403809,583.583801   C806.040466,589.925354 797.754333,592.697754 789.511353,595.341553   C774.405884,600.186401 758.802490,602.816406 743.153870,605.167603   C741.532593,605.411255 739.717041,605.108582 738.577332,606.673828   C732.957092,614.392517 725.359009,613.862000 717.390930,611.784241   C716.264709,611.490479 715.104736,611.210571 714.070862,610.700378   C710.747498,609.060364 708.020569,608.803345 704.540710,611.320496   C699.906494,614.672791 694.312622,613.994385 689.269043,611.589966   C686.131531,610.094177 683.077515,609.795532 679.653809,609.848083   C651.491516,610.279846 623.262390,610.172607 595.484558,605.257324   C581.179688,602.726135 567.732422,605.693176 554.018188,607.573608   C534.523376,610.246643 514.969055,611.908325 495.311707,612.251770   C465.149170,612.778687 435.006958,612.503052 405.053467,608.268799   C389.380707,606.053406 373.785065,603.460571 359.006378,597.411133   C355.595825,596.015076 352.342987,594.334778 349.350769,592.201599   C340.755829,586.074097 340.518250,578.368469 348.662842,571.665161   C354.658813,566.730225 354.227081,566.903870 351.377228,559.817993   C349.337616,554.746704 346.200684,553.527588 341.152618,553.205811   C314.404205,551.500977 287.681396,549.397766 260.946808,547.472656   C241.022034,546.037842 221.098770,544.571228 201.163300,543.300110   C190.397644,542.613586 182.894714,536.027222 181.925156,525.370056   C181.638260,522.216675 180.364395,521.043762 177.540482,520.471863   C126.340012,510.102875 93.896042,478.268219 75.649712,430.654602   C63.967709,400.170532 52.931637,369.438904 41.477524,338.448486  M485.746216,246.218216   C494.822968,238.547806 505.647308,233.687576 516.281372,228.404419   C514.809753,226.315079 513.636047,226.853897 512.539062,227.136719   C494.532593,231.778915 483.668488,220.049561 479.468079,207.361984   C475.678345,195.914780 479.338593,181.881348 490.195374,178.616699   C493.322937,177.676224 492.586273,175.650406 491.601044,173.475815   C488.503265,166.638474 485.955444,159.581238 483.864563,152.384689   C477.511078,130.516617 476.218018,108.796829 486.259705,87.510498   C486.512756,86.974106 486.509857,86.316948 486.636749,85.662094   C485.900543,85.483170 485.427673,85.293907 484.944244,85.261337   C445.573669,82.608994 406.207001,79.895912 366.829529,77.349678   C331.933838,75.093262 297.022491,73.078156 262.129211,70.786873   C258.616119,70.556175 257.533905,71.472382 257.148071,74.928429   C255.763474,87.330307 253.810593,99.670677 252.533310,112.081718   C251.946503,117.783585 249.453842,123.774033 254.158112,129.255615   C255.608765,130.945938 254.518585,133.716888 252.690231,135.070770   C249.659714,137.314896 249.019943,140.426071 248.626099,143.759613   C248.118393,148.056885 247.712631,152.367584 247.123169,156.653275   C246.792664,159.056229 246.870819,161.069107 248.725052,163.062729   C251.211227,165.735855 250.633362,168.959915 248.033051,171.022369   C244.875198,173.527008 244.302048,176.623077 244.092468,180.226181   C243.889938,183.708145 243.441711,187.193878 242.824905,190.628296   C242.276978,193.679047 242.126801,196.295639 244.348358,199.022324   C246.483139,201.642487 245.848648,204.710205 243.325211,207.088257   C242.002716,208.334534 240.467575,209.265366 240.244278,211.391327   C239.653366,217.016968 238.893066,222.624725 238.209381,228.240723   C237.939072,230.461334 238.273224,232.447647 239.739807,234.329742   C242.267166,237.573212 241.449478,240.622177 238.465256,243.078140   C236.944763,244.329453 235.995438,245.755157 235.751297,247.651596   C234.965149,253.758072 232.191986,260.545044 233.953003,265.809113   C236.217911,272.579407 235.043640,276.662109 231.856491,282.578613   C229.070587,287.750275 228.173553,295.402527 229.717102,301.066315   C231.570740,307.867950 230.500839,312.471161 227.569733,318.543274   C224.892227,324.090057 223.404526,331.915771 225.217987,337.493286   C227.472610,344.427551 225.569153,348.580292 222.846466,354.374817   C220.361008,359.664551 219.271713,366.880341 220.720947,372.422577   C222.474762,379.129486 221.931961,383.752350 218.674576,389.885376   C215.902985,395.103668 216.757599,402.229706 215.904694,408.497681   C215.680786,410.143158 216.149841,411.359161 217.149933,412.606812   C219.537521,415.585571 219.160324,418.604767 216.513763,421.091431   C214.099243,423.360016 213.498840,426.096344 213.234299,429.163391   C212.891098,433.142456 212.507431,437.134521 211.803421,441.060425   C211.279831,443.980255 211.177643,446.566071 213.129181,449.083771   C214.722855,451.139801 214.891006,453.917114 212.952316,455.501709   C209.216980,458.554810 208.994919,462.708801 208.693939,466.758606   C208.200821,473.393951 205.281403,480.129700 209.372971,486.701782   C210.402771,488.355896 209.715729,490.528625 208.237152,491.737671   C204.701065,494.629120 204.602676,498.633881 204.237762,502.590240   C203.279175,512.982544 203.296692,512.942139 213.527985,513.665100   C255.548416,516.633850 297.568176,519.612183 339.583557,522.651123   C342.956116,522.895020 344.679077,522.289124 345.020630,518.304138   C346.733154,498.323090 351.176147,478.863892 357.139587,459.751617   C371.991821,412.151855 393.265137,367.373901 416.765472,323.539215   C426.212250,305.918213 436.911316,289.753906 455.707428,280.776886   C458.258698,279.558380 460.665070,278.039917 463.175507,276.731232   C464.886658,275.839233 466.081573,274.627197 466.642090,272.714050   C469.811798,261.895691 476.642639,253.663849 485.746216,246.218216  M478.600983,594.903809   C491.754242,594.050537 504.684418,591.668579 517.620911,589.294373   C520.778564,588.714844 522.043213,587.265137 522.071167,583.936462   C522.142517,575.447693 522.444153,566.953552 522.940186,558.478271   C523.279968,552.671936 524.047363,546.887329 524.738037,541.106689   C524.952942,539.307983 525.339111,537.047058 527.803162,537.379517   C530.277100,537.713379 529.928223,539.766113 529.658020,541.714417   C527.870361,554.605530 527.408508,567.583435 527.307983,580.578979   C527.244751,588.738159 527.266663,588.755371 535.138184,589.840149   C551.315857,592.069397 567.379150,590.002014 583.458313,588.528687   C586.784180,588.223877 587.697632,586.372437 587.820496,583.155945   C588.633972,561.854187 589.538086,540.554260 590.685059,519.268372   C590.922424,514.863647 589.692871,512.681335 585.332947,511.401917   C565.842285,505.682404 546.573486,499.166809 526.971802,493.875061   C500.024567,486.600311 473.545105,477.076447 445.433228,474.868286   C425.298950,473.286713 405.438507,474.114136 387.059265,484.034973   C385.573273,484.837128 383.857635,485.858307 382.653809,483.929291   C381.213593,481.621521 383.349792,480.640228 384.842316,479.727203   C390.294281,476.392120 396.295319,474.393402 402.430054,472.747925   C415.978851,469.113831 429.823608,469.421722 443.649445,469.789642   C447.127045,469.882202 448.886627,468.712433 449.498718,465.280304   C454.056396,439.725647 458.419067,414.144867 460.816833,388.272919   C461.415894,381.808746 462.069183,375.349457 462.739532,368.892242   C462.903259,367.315247 463.407776,365.813446 465.420349,366.016235   C467.140045,366.189545 467.369781,367.591095 467.386902,368.993042   C467.399109,369.992065 467.371063,370.994019 467.306976,371.991180   C465.682312,397.275085 461.858398,422.281311 457.746552,447.248474   C456.510925,454.751221 455.094818,462.224304 453.720978,469.938202   C460.578918,471.513733 466.890686,472.912872 473.177521,474.416382   C511.910370,483.679260 549.992554,495.225555 587.967773,507.148315   C595.552246,509.529541 596.585754,509.641449 595.362732,517.313171   C594.788513,520.915833 596.238647,522.788696 599.879028,523.661072   C609.626526,525.996704 619.439941,527.480225 629.478210,527.906250   C641.951050,528.435669 654.383972,525.423157 666.875916,527.721069   C668.825439,528.079712 670.970276,529.277344 672.899597,528.050659   C660.193909,462.908051 649.980774,397.614502 645.319214,331.404480   C641.358398,332.736450 641.096985,335.774872 641.066040,339.069397   C640.790833,368.392517 640.505066,397.715668 640.123962,427.037537   C640.077454,430.621765 640.673706,433.163177 644.289368,435.137451   C649.203979,437.821014 651.244385,444.085663 649.957703,449.503723   C648.190186,456.946686 645.642822,459.260620 638.347656,460.049866   C631.760681,460.762482 625.949158,457.329498 623.610291,451.344116   C621.194519,445.161957 623.155823,438.410583 629.031616,434.762878   C631.896240,432.984528 632.728882,430.916565 632.642334,427.813324   C632.493713,422.484741 632.625671,417.148621 632.624634,411.815643   C632.620422,390.504395 632.612549,369.193146 632.600098,347.881897   C632.598450,345.116882 632.698547,342.331268 631.535767,339.265594   C613.317078,346.679108 595.465698,344.763977 577.581482,337.827393   C577.370056,339.259735 577.157471,340.054291 577.148865,340.851044   C576.825134,370.840149 576.553284,400.829865 576.163025,430.818085   C576.122681,433.914978 577.437439,435.563721 579.934753,437.166138   C586.145996,441.151611 588.865601,451.902069 584.685425,456.513550   C580.631775,460.985443 575.550537,463.925690 569.111145,462.155945   C563.487000,460.610229 559.746399,456.964050 558.873047,451.101929   C557.959229,444.967896 559.989502,439.896790 565.560364,436.678314   C567.446533,435.588623 568.539917,434.405823 568.438354,431.978729   C567.616150,412.334167 569.197021,392.687988 568.245667,373.021454   C567.707886,361.903839 568.478882,350.726227 568.518616,339.575134   C568.529175,336.629852 568.472656,333.671051 565.362976,331.683746   C542.314758,316.953827 518.849609,302.994873 493.614258,292.255035   C488.405060,290.038055 483.286072,287.288513 477.838074,286.077972   C474.757996,285.393585 472.325623,285.053223 471.043182,281.220581   C457.857086,289.213715 444.133118,295.355927 436.033508,309.120728   C406.014435,360.136169 380.873993,413.334747 363.990326,470.187988   C357.864105,490.817047 353.435211,511.820221 354.235718,533.587219   C354.938202,552.689514 362.671753,567.831360 378.644348,578.729675   C386.451782,584.056763 394.819641,588.033142 403.831909,590.624329   C428.105469,597.603149 452.850250,597.084595 478.600983,594.903809  M658.053772,221.388031   C657.150818,223.238434 655.408020,224.833084 656.153320,227.233078   C661.011475,228.082550 665.783508,228.762970 670.484924,229.772675   C678.992126,231.599731 687.287048,234.014786 694.284363,239.573318   C698.058777,242.571594 699.382812,245.846207 696.448303,250.312546   C692.975403,255.598221 690.389954,261.569427 686.376526,266.371490   C681.384521,272.344299 681.543701,277.413330 685.709412,283.620605   C687.914246,286.905914 689.317932,287.774963 693.095642,286.038208   C705.429993,280.367584 718.210083,276.112579 732.071594,276.700928   C734.066528,276.785583 736.452942,276.060638 738.199097,278.819366   C723.319763,281.430908 710.360901,288.092926 697.568848,295.235199   C694.283997,297.069305 693.975220,298.831512 695.709839,301.974945   C702.307678,313.931671 708.691162,326.006531 715.189026,338.018646   C717.525696,342.338074 719.959351,346.605042 722.951477,351.978455   C724.121033,347.937500 724.952881,345.115326 725.754333,342.284576   C728.393738,332.962708 731.817932,323.953705 736.412903,315.407471   C737.372437,313.622925 738.307617,311.368652 740.829407,312.866119   C743.033325,314.174805 741.689148,316.143890 740.851807,317.706451   C734.906982,328.799866 731.173279,340.667328 728.078613,352.811310   C727.007141,357.015839 727.595520,360.486023 729.623840,364.226440   C739.468201,382.380524 749.123047,400.637390 758.846252,418.857208   C759.238281,419.591888 759.688782,420.299347 760.029663,421.056580   C760.718140,422.585846 761.652893,424.347534 759.657043,425.449615   C757.354431,426.721069 756.441284,424.734955 755.503723,423.155792   C755.164246,422.583954 754.901611,421.967072 754.588501,421.378967   C745.586914,404.471832 736.630615,387.540375 727.560242,370.670319   C723.089355,362.354980 718.406860,354.153412 713.554504,345.422424   C695.001953,358.027710 674.425964,361.029541 652.753967,361.300293   C653.032288,365.104889 653.096313,368.395111 653.537476,371.633911   C657.510071,400.799744 661.095032,430.012482 665.889038,459.072998   C669.569580,481.383453 673.022522,503.711151 678.092102,525.764221   C678.857849,529.095276 680.305725,530.803894 683.580017,531.926758   C703.598816,538.791565 722.147705,548.405151 738.371948,562.177368   C741.942627,565.208313 745.604980,568.333984 747.395569,572.715454   C748.970825,576.569885 751.135803,576.499878 754.398010,575.334473   C775.773376,567.697937 787.227905,551.939148 791.714111,530.305298   C793.011353,524.049561 792.057068,517.599915 793.283325,511.432312   C797.230835,491.577820 798.197632,471.478851 798.720886,451.345947   C799.383362,425.856750 798.677673,400.385712 796.668579,374.965057   C795.172729,356.038696 793.298157,337.161621 787.587036,318.903259   C784.817566,310.049255 781.362427,301.661621 773.786926,295.670410   C768.758240,291.693329 763.117676,288.945435 757.015686,287.093811   C748.441406,284.491974 741.791077,280.053375 739.130859,270.728546   C737.527222,265.107513 734.080017,260.243317 730.305115,255.744781   C715.393372,237.974304 695.447266,228.896194 673.600586,223.313293   C668.713074,222.064316 663.890930,219.717514 658.053772,221.388031  M680.708923,192.152466   C686.745605,184.052917 685.068909,175.411377 682.153442,166.886734   C679.209534,158.279083 672.342102,153.664261 663.539734,155.745453   C655.566467,157.630585 651.300049,154.186752 647.462158,148.367279   C640.536011,137.865250 635.581787,126.443642 631.442688,114.617462   C630.594910,112.195045 630.340454,109.383255 627.512939,107.360397   C592.356079,130.083801 554.077698,137.730148 512.334839,128.385529   C512.334839,131.396179 512.338867,133.363480 512.334106,135.330734   C512.303955,147.812881 512.554504,160.303482 510.529663,172.695541   C508.967102,182.258377 509.027069,182.268158 499.204468,182.278259   C489.944611,182.287781 484.333954,186.764008 483.329346,194.764496   C481.481750,209.477859 492.853455,229.213181 514.501343,221.166916   C516.829163,220.301697 518.342224,220.353577 519.712097,223.011230   C523.936523,231.206741 529.679688,238.388535 536.089294,244.948029   C540.908081,249.879486 546.078552,254.557205 552.954773,256.767456   C554.863953,253.599182 556.065552,250.994537 555.004089,247.490204   C553.806152,243.535416 555.044678,239.877136 558.436035,237.260208   C559.817505,236.194260 560.950378,235.145782 560.930176,233.231323   C560.891846,229.606689 563.309692,227.615036 566.289001,226.847641   C571.414734,225.527374 575.519165,222.883789 579.169312,218.662033   C576.124329,215.441544 576.944946,211.951935 578.661987,208.202133   C581.917358,201.092575 584.997864,193.901947 587.426025,186.443726   C588.151245,184.216156 588.568909,180.885101 591.805298,181.295425   C594.641541,181.655014 594.211060,184.880280 594.874878,187.015442   C595.021545,187.487320 595.120850,188.001389 595.106018,188.491928   C594.902893,195.233002 598.159485,200.033508 603.116760,204.323776   C609.753235,210.067276 609.288391,212.992905 601.142639,217.642365   C616.534729,219.152451 630.140381,223.994720 642.396606,232.429016   C644.902649,234.153519 645.934570,232.314789 647.090332,230.609283   C652.603149,222.474411 655.984802,213.455368 657.523682,203.830429   C658.169312,199.792374 659.969727,198.492447 663.809692,198.639679   C670.027832,198.878113 675.661255,197.179443 680.708923,192.152466  M602.124756,584.365784   C620.164368,590.665649 638.671143,594.462585 657.822449,594.987000   C667.840454,595.261414 677.262512,597.529724 685.445740,603.773804   C688.096008,605.796021 691.156555,607.188171 694.381165,608.157654   C697.702026,609.155945 700.509705,608.373779 703.528625,605.581238   C691.012207,594.802063 678.261780,585.155640 662.964783,579.280762   C660.738281,578.425720 656.248169,578.530151 657.405090,575.133118   C658.792908,571.058228 662.587036,573.893188 665.088440,574.811279   C680.184937,580.352295 692.797363,589.869629 704.956848,600.096130   C711.619080,605.699280 719.382568,608.294250 728.074707,607.671997   C731.036926,607.459900 733.799500,606.040955 734.384521,602.877625   C734.933411,599.909912 731.946716,599.233032 730.020508,598.150574   C711.285645,587.622192 692.414856,577.348633 672.970947,568.167480   C671.179810,567.321838 668.601257,566.490479 669.633362,564.058228   C670.868469,561.147766 673.373657,562.909851 675.214844,563.737854   C679.618164,565.718140 683.948792,567.863464 688.277527,570.005249   C703.660828,577.616699 718.575928,586.095886 733.597473,594.381409   C735.962708,595.686096 739.411255,598.445618 741.369812,594.756165   C743.071472,591.550720 741.754517,587.885132 738.085205,585.849854   C737.939575,585.769043 737.798401,585.680054 737.656189,585.593323   C721.182007,575.540344 705.327637,564.337402 686.745972,558.195740   C685.278015,557.710510 683.714905,556.952393 684.238831,555.076843   C684.831848,552.954346 686.714294,553.054199 688.367126,553.570923   C691.063171,554.413818 693.757507,555.318604 696.343750,556.446716   C710.902161,562.796570 724.317749,571.195557 737.702759,579.646362   C739.298584,580.653870 740.971924,582.761963 742.917969,580.708679   C744.595642,578.938538 743.947083,576.617981 742.927368,574.625000   C741.221741,571.291748 738.449585,568.835754 735.689697,566.431824   C723.510254,555.823425 709.644836,547.966309 694.912720,541.510803   C679.269043,534.655701 663.096313,530.399658 645.894043,532.448181   C635.184509,533.723450 624.632019,533.206421 614.081238,531.456848   C607.948120,530.439819 601.851013,529.205322 595.556885,528.035034   C593.840881,543.020813 594.092712,557.518738 593.383728,571.960266   C592.896545,581.882263 592.015503,580.193237 602.124756,584.365784  M616.860352,225.584198   C607.784851,223.027100 598.560486,222.451385 588.830383,223.437592   C591.103149,224.706146 593.302307,224.513031 595.377197,224.877197   C603.603149,226.320953 611.652588,228.366379 619.254456,231.920563   C621.864563,233.140900 624.158936,234.756409 625.653687,237.308777   C626.453918,238.675140 627.028809,240.187546 625.668030,241.404175   C624.431274,242.509842 623.113220,241.588776 622.036926,240.831528   C616.204163,236.727875 609.582642,234.491776 602.764954,232.837631   C593.064331,230.484009 583.329224,228.309692 573.211487,230.134659   C570.839417,230.562531 568.423950,230.569748 566.669861,233.465729   C572.904480,233.921448 578.512085,234.225143 584.097229,234.762985   C593.937744,235.710587 603.479858,237.968414 612.559998,241.932678   C615.788330,243.342148 618.827637,245.125214 620.339111,248.603241   C620.741272,249.528732 621.145081,250.506027 620.379700,251.415634   C619.476074,252.489319 618.314636,252.384995 617.204163,251.819183   C616.317993,251.367722 615.534790,250.717926 614.661499,250.236801   C600.280212,242.314133 584.512024,239.939545 568.460876,239.300720   C564.771362,239.153870 560.093201,240.186829 559.632263,245.595306   C561.604919,247.009644 563.284302,246.518555 564.917175,246.431656   C580.635437,245.595291 595.757324,248.169220 610.239319,254.375717   C612.878540,255.506821 615.287537,256.993103 616.912659,259.443359   C617.818359,260.808899 619.065735,262.356415 617.421509,263.883575   C616.053040,265.154602 614.644470,264.163574 613.341736,263.358551   C599.114014,254.566238 583.011780,252.937790 566.928833,251.276901   C565.017883,251.079559 562.975891,251.020828 561.882996,253.625565   C571.316345,259.024719 581.318604,262.284760 591.792603,263.189056   C602.403076,264.105164 609.821594,269.270966 615.675842,277.588959   C617.208191,279.766235 618.983398,281.770996 620.564026,283.916199   C627.170837,292.883148 635.531738,299.524170 646.185059,303.001617   C649.256958,304.004303 650.235901,305.888184 650.301697,308.940613   C650.549500,320.428864 650.940002,331.914368 651.335632,343.398865   C651.438660,346.389984 651.792664,349.371613 651.959351,352.361633   C652.099243,354.871948 653.467468,355.814606 655.854370,355.852356   C674.186768,356.142059 691.627441,352.808929 707.622375,343.372437   C710.041260,341.945343 710.904480,340.454346 709.380920,337.754211   C696.127380,314.265778 685.271912,289.404572 670.160950,267.004242   C657.197083,247.786636 640.086060,233.242645 616.860352,225.584198  M803.937744,214.474365   C819.118164,193.790604 835.721375,174.457001 856.368591,158.889481   C830.875061,184.743073 811.003174,214.575714 792.076355,246.792419   C809.365601,241.446976 825.666321,238.214844 841.960022,235.047485   C847.234985,234.022095 849.599915,231.586838 850.711487,226.564819   C854.089844,211.301407 857.926880,196.139618 861.312134,180.877640   C863.351318,171.684067 866.138489,162.630692 867.253235,153.281952   C865.732666,152.665390 864.688416,153.348755 863.635925,153.708313   C837.715271,162.562592 812.875244,173.678787 789.549255,188.181259   C783.744751,191.790070 780.587219,195.105515 781.978943,202.712067   C784.087158,214.234619 784.979919,225.984711 787.622498,238.104385   C793.194824,230.027313 798.359131,222.541702 803.937744,214.474365  M917.945679,398.524689   C926.584290,382.134735 935.222961,365.744781 944.499329,348.144836   C935.803467,348.948914 928.713501,349.488800 921.651550,350.278809   C898.759827,352.839478 876.319458,357.471680 854.455933,364.849487   C851.221252,365.941040 849.990723,367.808441 849.601746,370.902161   C849.020996,375.521820 847.955078,380.095978 847.618835,384.727509   C847.024719,392.910156 845.043335,400.998108 845.323730,410.407471   C872.209167,386.545715 899.503357,365.218262 931.978027,351.571228   C900.674072,370.214844 873.537109,393.887329 847.644531,419.901917   C852.805542,419.901917 857.275940,419.751465 861.733032,419.930298   C874.707886,420.450867 887.681274,421.032349 900.646362,421.751740   C904.071045,421.941742 906.168884,420.895294 907.736511,417.695740   C910.811829,411.418762 914.307129,405.347595 917.945679,398.524689  M160.896133,463.553955   C158.231628,459.135895 155.457687,454.778961 152.941513,450.277985   C151.295135,447.332947 149.043411,446.246582 145.690277,446.047913   C133.905838,445.349701 122.142220,444.306671 110.366333,443.454895   C102.335968,442.874054 94.298309,442.393799 85.539825,441.821259   C92.478828,456.784180 101.255569,469.426941 112.275887,480.434784   C130.250580,498.389221 151.342255,510.722778 176.603760,515.416626   C180.924942,516.219604 182.884003,515.300049 183.720169,510.651978   C184.796478,504.669220 181.292389,500.607544 179.164734,495.820251   C177.462875,491.991058 174.967194,490.698425 171.008255,490.902313   C167.196030,491.098663 163.343323,491.091675 159.543655,490.764496   C156.474030,490.500244 154.055374,488.722595 153.932892,485.413788   C153.820312,482.372955 156.338669,481.416779 158.835175,480.605316   C161.934204,479.598022 165.411926,479.867676 168.502350,477.961182   C166.845306,472.790161 163.749573,468.640381 160.896133,463.553955  M306.581848,525.175354   C274.063690,522.833191 241.530609,520.675354 209.035995,518.042847   C198.530289,517.191711 196.994843,518.386047 198.792709,506.042236   C198.936554,505.054810 198.990326,504.054016 199.141068,503.067871   C200.370117,495.027191 199.456314,493.992889 190.401505,493.959351   C189.344620,503.081299 188.050461,512.267334 187.272202,521.496826   C186.401611,531.821289 191.369400,537.727966 201.591339,538.506531   C221.997055,540.060791 242.426346,541.302246 262.839172,542.767029   C284.243134,544.302979 305.637207,545.975952 327.039825,547.531372   C333.412109,547.994446 339.798523,548.263428 346.463928,548.637329   C345.821106,542.022949 345.257233,536.261230 344.702850,530.498596   C344.445251,527.820740 342.487091,527.499512 340.391846,527.362793   C329.435059,526.647705 318.478149,525.934570 306.581848,525.175354  M831.179504,436.676544   C825.162964,443.357147 819.111389,450.006714 813.143677,456.730682   C809.842041,460.450745 810.852173,465.078339 811.684937,469.110016   C812.303162,472.103088 816.207520,471.329956 818.659973,471.547943   C836.559509,473.138916 854.444885,474.926605 872.445618,475.198029   C876.069397,475.252686 877.886719,474.049652 879.444092,471.065430   C885.760803,458.961517 892.247925,446.946655 898.626038,434.874573   C899.441406,433.331329 900.766907,431.830719 899.765747,429.490234   C883.994202,428.103271 868.083374,426.946808 852.237427,425.201294   C845.045349,424.409058 839.612122,426.294769 835.472412,432.211639   C834.435913,433.692993 832.949524,434.859528 831.179504,436.676544  M77.908775,388.570312   C89.325188,389.264221 100.673958,390.652466 113.530197,392.570404   C94.088806,367.319214 74.326576,344.422241 50.322109,325.391144   C76.108452,340.497559 96.578041,361.526855 116.386604,384.653168   C117.507538,373.476654 117.597893,363.387268 117.731316,353.281555   C117.787422,349.031769 116.447144,346.685822 112.549393,344.859528   C96.674553,337.421478 80.357506,331.240601 63.384960,326.871552   C56.218384,325.026703 49.095165,322.827545 41.824459,322.032104   C40.961182,323.930237 41.861382,325.089935 42.302151,326.297485   C48.237583,342.558746 54.709743,358.648163 59.949879,375.129578   C62.810856,384.127991 66.729912,389.841522 77.908775,388.570312  M131.986298,214.750381   C132.438232,220.386856 132.907974,226.022003 133.332397,231.660553   C133.480621,233.629852 134.108597,235.213516 136.110443,235.974075   C150.339798,241.380219 164.899719,245.889877 179.747421,252.772400   C167.978470,223.930862 154.389648,197.463776 137.075943,172.900131   C147.692734,183.020279 155.978134,194.787766 163.685486,207.014755   C171.326859,219.137100 177.716461,231.958649 184.539108,244.657364   C185.476212,242.457306 187.401627,240.698944 186.147324,238.422577   C184.442184,235.328033 185.083710,233.064453 188.076736,231.301910   C189.826859,230.271286 190.202759,228.386124 190.665131,226.629776   C191.766113,222.447495 192.568069,218.172592 193.908844,214.071762   C194.967178,210.834763 193.928299,208.890961 191.517578,206.782181   C176.020294,193.226120 158.870758,182.113052 140.866394,172.265076   C136.695801,169.983841 132.624969,167.387497 127.230263,165.791840   C128.815811,182.194702 130.345261,198.017319 131.986298,214.750381  M517.333008,251.118774   C517.062378,250.698639 516.765381,250.292953 516.525818,249.855804   C515.590454,248.148300 513.748474,246.533096 514.796448,244.428925   C515.892822,242.227707 518.277832,243.062759 520.200256,242.863617   C522.082214,242.668671 524.176514,243.564621 525.804932,241.983139   C525.729248,240.387756 524.612549,239.511032 523.849792,238.459137   C519.598511,232.596115 519.576111,232.584839 513.005310,235.621872   C505.120972,239.266037 497.509888,243.421997 490.672943,248.801727   C482.894928,254.921936 475.954712,261.791229 473.087891,269.867126   C476.214996,279.237671 484.061768,277.496521 490.164307,279.565247   C494.892944,281.168213 499.680481,282.638519 504.298645,284.519409   C525.522522,293.163391 545.368408,304.475769 564.321350,317.200470   C576.019287,325.054260 588.278320,330.709595 602.129639,333.092133   C606.835571,333.901611 611.422607,333.877563 615.940002,332.379303   C626.809814,328.774109 635.460632,321.477295 644.645081,315.072266   C642.366394,315.992767 640.348511,317.343842 638.315857,318.672363   C623.366516,328.442749 607.674133,330.938416 590.859009,323.777924   C583.588989,320.682068 576.960266,316.579376 570.745789,311.787842   C549.213440,295.185760 532.856323,273.996216 517.333008,251.118774  M823.605469,295.036652   C825.384155,294.611572 827.142700,293.971527 828.945374,293.802643   C833.878723,293.340515 835.927246,290.545532 836.772156,285.836823   C837.885803,279.629944 839.784180,273.568420 841.120972,267.395844   C842.894775,259.205505 845.413940,251.136368 846.038147,242.361694   C844.672791,242.361694 843.846252,242.242935 843.064209,242.379166   C825.873779,245.373230 808.688782,248.399109 791.500549,251.405853   C790.124512,251.646545 788.930359,252.143173 788.239258,253.426620   C782.264893,264.521759 776.300659,275.622345 770.260376,286.857117   C775.522278,290.626801 780.221191,294.102905 783.592957,298.918030   C785.529236,301.683105 787.873474,302.034882 790.962097,301.405273   C801.552002,299.246460 812.180420,297.276917 823.605469,295.036652  M596.812134,320.755707   C614.003540,327.582001 635.834412,317.248322 642.803894,307.711639   C641.932678,307.504883 641.147644,307.302460 640.355530,307.132996   C624.237793,303.684601 610.715088,296.514709 602.375854,281.443024   C599.619751,276.461884 594.628723,274.303162 589.196899,273.311066   C580.188904,271.665741 571.203674,269.932251 562.764709,266.214355   C559.985474,264.989929 558.458008,265.494476 557.764771,268.634491   C556.510315,274.316895 555.083313,279.962738 553.639099,285.600983   C553.092468,287.734985 553.433350,289.444275 555.018921,291.056946   C567.004761,303.247345 579.844727,314.233093 596.812134,320.755707  M177.380188,365.137238   C179.927048,366.949371 181.539291,370.443695 184.826920,370.717834   C189.748840,371.128204 195.305389,372.427246 199.511490,370.066895   C202.623459,368.320526 201.398254,363.059998 202.045288,359.351868   C202.216766,358.369141 202.474854,357.399719 202.610092,356.412811   C203.576569,349.360870 203.128967,348.665619 196.069763,348.335236   C190.423767,348.070953 184.757294,348.277252 179.104004,348.123718   C175.729904,348.032074 172.571106,346.933136 171.961731,343.181946   C171.300140,339.109131 174.771118,338.321716 177.652863,337.608887   C185.112656,335.763580 192.744934,334.902466 200.390976,335.446198   C204.284348,335.723083 205.646088,334.231750 205.664139,330.812897   C205.695618,324.852295 204.131393,318.986450 200.823563,314.351562   C198.312424,310.832977 193.088455,312.385406 188.987289,312.250916   C186.993088,312.185516 184.994476,312.265839 182.997940,312.257599   C180.907654,312.248993 178.362640,311.797455 177.754349,309.987152   C175.649933,303.724487 169.886581,303.432709 165.103271,301.666565   C157.217972,298.755096 149.214462,296.163757 141.072098,293.372803   C141.177170,312.790253 157.177734,344.357422 177.380188,365.137238  M805.056396,538.214905   C805.526550,542.937927 808.178162,539.749023 809.422485,539.138000   C834.946289,526.604004 855.173767,508.015930 871.179810,484.669342   C871.716736,483.886230 872.450012,483.067078 871.653137,481.598877   C866.252380,481.326935 860.650146,481.094543 855.054565,480.753235   C841.788696,479.944031 828.521667,479.145111 815.264954,478.202728   C811.591431,477.941589 810.151794,479.252136 810.226501,482.970825   C810.302979,486.779846 809.771362,490.596802 809.650269,494.414825   C809.191284,508.874756 804.712219,522.909119 805.056396,538.214905  M89.234695,395.369751   C82.186089,395.369751 75.137474,395.369751 67.701103,395.369751   C71.764114,406.387177 76.201508,417.328400 79.772354,428.545502   C81.666145,434.494476 85.047798,436.466156 90.901169,436.761505   C105.200226,437.482880 119.458160,439.029480 133.797821,438.959473   C137.034576,438.943695 140.335434,440.529114 143.487991,438.798798   C144.521255,436.195404 142.876846,434.486847 141.706146,432.767090   C134.582581,422.302612 127.274994,411.961792 120.261360,401.424957   C117.854683,397.809296 114.746208,396.490967 110.632240,396.366394   C103.810844,396.159882 96.996323,395.725983 89.234695,395.369751  M151.514038,248.107101   C146.206100,246.410019 140.898163,244.712921 134.947327,242.810287   C135.450882,256.087158 137.147125,268.258301 138.086655,280.487640   C138.419708,284.822784 140.183502,287.221252 144.111145,288.534790   C155.163422,292.230988 166.307602,295.695801 177.185837,299.852905   C183.842316,302.396667 189.801895,299.958191 196.447098,299.484039   C195.144363,292.953369 192.699417,287.479889 190.938354,281.799194   C189.991165,278.743774 188.729034,276.699402 185.085144,275.990479   C181.010208,275.197693 179.752213,271.312195 181.969620,268.432281   C185.451508,263.910065 183.942108,258.403290 178.483475,256.591278   C169.792679,253.706345 161.022034,251.061874 151.514038,248.107101  M152.317047,373.716919   C151.924362,391.846497 151.813522,409.988678 151.006454,428.099762   C150.662048,435.828400 154.972519,441.046783 158.102234,447.073151   C164.221909,444.144287 170.302673,442.908386 178.973557,442.685547   C192.615189,442.335022 192.616730,442.335144 193.657242,428.624146   C193.720169,427.794952 193.771561,426.960815 193.754883,426.130432   C193.686737,422.738342 192.389786,420.595123 188.660049,419.949677   C183.016220,418.972961 177.372513,419.444519 171.729248,419.366089   C167.929764,419.313293 163.721909,419.305237 163.078720,414.624115   C162.353912,409.348938 167.280212,409.428467 170.594742,408.599091   C174.693054,407.573608 178.927536,407.092255 183.757629,406.263519   C175.526581,392.913971 165.602432,382.079773 154.310455,372.427582   C153.566071,371.791321 152.772430,371.971039 152.317047,373.716919  M764.164612,206.678238   C760.328735,210.125137 756.608643,213.713654 752.619995,216.973557   C749.501831,219.522018 748.839111,222.567917 749.467957,226.293030   C752.400269,243.663086 755.278015,261.042358 758.165527,278.419952   C758.462402,280.206665 758.354248,282.231323 760.760010,282.702759   C763.479004,283.235626 764.080261,280.998688 764.990723,279.305206   C769.876770,270.216980 774.661865,261.073944 779.614014,252.022171   C780.810852,249.834442 781.062073,247.646805 780.832336,245.290955   C779.444214,231.056351 778.068970,216.820404 776.635193,202.590378   C776.493652,201.185822 776.573486,199.513840 774.387329,198.723022   C771.257446,201.143555 767.980652,203.677734 764.164612,206.678238  M817.162659,439.649811   C822.437988,434.111389 827.667114,428.527802 833.014526,423.059814   C834.814941,421.218719 836.198059,419.298462 836.621887,416.695740   C838.223450,406.861511 840.116394,397.068207 841.441284,387.197998   C842.202820,381.524048 844.014954,375.910553 843.439453,370.106232   C841.168762,369.387787 839.592346,370.537659 837.951660,371.187988   C830.366211,374.195007 823.186890,378.055756 815.895203,381.688293   C812.646484,383.306732 811.670288,385.707672 811.196655,389.163727   C808.690613,407.450623 812.085510,425.677460 811.483704,443.932251   C811.476379,444.154907 811.877991,444.390991 812.348633,444.904266   C813.827393,443.312653 815.275879,441.753632 817.162659,439.649811  M146.688477,400.325226   C146.967590,391.007355 147.148209,381.684998 147.571442,372.373688   C147.756241,368.308075 146.478622,365.334656 142.962097,363.147552   C137.451065,359.720001 132.089935,356.052185 126.608665,352.575439   C125.451843,351.841644 124.290802,350.510895 122.579361,351.540771   C122.579361,359.366821 123.091972,367.211182 122.466873,374.963837   C121.351936,388.791595 126.137321,400.099304 135.174561,410.226532   C138.700851,414.178101 141.273621,418.980591 145.034210,424.501831   C145.645081,415.829254 146.157455,408.555145 146.688477,400.325226  M817.926697,302.546509   C808.987000,304.655670 799.793030,305.717926 790.348083,308.615570   C797.903503,322.034332 801.563843,336.102020 805.121582,351.437408   C817.728943,335.196594 826.799011,318.676910 832.759521,299.499390   C827.478149,300.584229 823.117310,301.479980 817.926697,302.546509  M207.094482,263.830139   C208.931442,263.783508 210.937027,263.923889 211.589493,261.631500   C213.342773,255.471573 216.317230,249.594254 216.174179,242.455719   C208.796829,240.499695 201.386627,240.807297 193.973984,241.326370   C192.427505,241.434647 191.778000,242.726242 191.465454,244.072418   C190.715256,247.303452 189.817963,250.521698 189.376068,253.798538   C188.414597,260.928192 192.244308,264.767242 199.243729,264.083832   C201.551559,263.858490 203.886536,263.910828 207.094482,263.830139  M751.492554,276.819580   C749.042114,260.257629 747.085938,243.609421 743.546509,226.317093   C737.892395,232.251038 733.591797,237.698761 729.476685,243.310120   C728.363342,244.828247 728.624756,245.994766 729.828979,247.243454   C737.206848,254.893890 742.525513,263.731354 745.824402,273.888062   C746.471191,275.879578 747.678101,279.227539 751.492554,276.819580  M187.574509,476.511597   C188.241531,471.403503 188.824463,466.282501 189.605865,461.191956   C190.106735,457.929047 189.142303,456.358002 185.636765,455.869751   C178.227798,454.837738 170.881653,455.273041 162.820633,455.365662   C166.477676,462.834595 169.756454,469.520050 173.021652,476.212128   C173.476929,477.145233 174.044540,478.203186 175.142990,478.033447   C179.184143,477.408936 183.374969,479.132996 187.574509,476.511597  M194.958160,385.247406   C188.091614,383.137939 181.146667,383.022552 173.344345,383.930969   C179.135605,391.036377 184.375809,397.466675 188.645935,404.593933   C189.854187,406.610596 191.749603,406.930481 193.842789,406.690979   C196.240555,406.416595 196.501236,404.562836 196.731567,402.684143   C197.216324,398.730103 197.529755,394.740753 198.293198,390.840179   C198.815872,388.169769 197.730804,386.746918 194.958160,385.247406  M204.417603,212.087143   C208.832901,216.721725 213.248199,221.356308 218.425980,226.791245   C219.272507,220.385269 219.982788,215.034271 220.685333,209.682266   C220.984604,207.402557 219.859253,206.414948 217.685806,206.013992   C211.317612,204.839203 204.959930,205.117859 197.683975,205.405411   C200.205841,207.922562 202.049942,209.763214 204.417603,212.087143  M632.719910,454.045715   C636.498657,455.585571 639.972961,455.050293 642.787231,452.103027   C644.934937,449.853760 646.120178,447.118774 644.956360,443.906830   C643.517273,439.935089 640.750793,437.456268 636.454895,437.409241   C632.636841,437.367462 629.748596,439.283234 628.329956,442.908783   C626.539734,447.483856 628.306885,450.957245 632.719910,454.045715  M576.164551,456.682220   C581.844971,453.311829 582.745911,445.428833 577.778259,441.763733   C574.348877,439.233551 570.672913,438.956787 567.186584,441.645081   C563.525085,444.468475 562.894348,448.265747 564.584351,452.371887   C566.198364,456.293243 570.496460,457.968719 576.164551,456.682220  M240.817261,101.040634   C238.999741,101.200508 238.867737,102.760704 238.707474,103.962494   C237.949112,109.648796 237.343140,115.355415 236.698135,120.923004   C245.066910,124.195740 245.912796,123.782494 247.133377,115.984749   C247.490356,113.704178 247.615585,111.387810 247.864578,109.089752   C248.672455,101.633385 248.675583,101.633720 240.817261,101.040634  M234.591522,194.226273   C237.280182,194.738266 237.567551,192.975861 237.778061,190.982895   C238.109695,187.843109 238.492188,184.705292 238.975861,181.585648   C240.251556,173.357681 239.088440,172.066010 230.323029,172.566956   C229.658188,177.415070 229.137146,182.358948 228.265442,187.240189   C227.439346,191.866165 228.942657,194.254440 234.591522,194.226273  M226.179565,229.408478   C228.275177,229.539032 230.366867,230.483109 232.951828,229.316406   C233.538635,224.938995 233.805466,220.289062 234.853729,215.822525   C236.079681,210.598862 234.054779,208.446899 229.111984,208.101990   C228.151016,208.034943 227.201996,207.424515 225.802734,208.489380   C225.053452,214.279556 224.223434,220.471329 223.472168,226.672638   C223.307434,228.032379 224.245041,228.770859 226.179565,229.408478  M217.550278,354.014404   C215.373260,350.844116 211.991074,351.316132 208.316208,350.759796   C207.412201,357.822754 205.942413,364.511292 206.103989,371.371887   C209.321533,372.424652 212.083969,373.387268 215.228333,372.599579   C216.041351,366.524658 216.826370,360.658844 217.550278,354.014404  M207.638489,408.538391   C209.370026,408.816101 210.634659,408.296600 210.892578,406.409119   C211.632568,400.993561 212.813049,395.575867 212.866821,390.149567   C212.906235,386.170868 208.544983,387.468567 206.172989,386.649414   C203.551224,385.744019 203.462265,388.144470 203.270233,390.010529   C202.880035,393.802094 202.834381,397.689423 201.908188,401.350433   C200.725677,406.024750 202.081696,408.246399 207.638489,408.538391  M224.744217,280.533356   C221.812286,280.670715 217.551056,276.643951 216.522797,282.820923   C215.708557,287.712097 215.483871,292.699341 214.914566,297.634369   C214.704788,299.452942 215.242188,300.740906 217.152756,300.662109   C219.442093,300.567719 223.040390,303.297058 223.793518,300.152039   C225.289612,293.904236 227.116943,287.453491 224.744217,280.533356  M207.165009,438.661835   C207.654236,434.885376 208.115036,431.104950 208.640060,427.333496   C209.259415,422.884491 205.593933,423.408020 203.142548,422.598694   C200.277954,421.652954 199.258392,423.216003 198.954590,425.802551   C198.452332,430.078491 197.995239,434.368164 197.250702,438.604889   C196.443573,443.197693 199.296173,443.523895 202.667297,444.190125   C207.180847,445.082123 206.572403,441.968689 207.165009,438.661835  M221.731140,320.601440   C221.226044,315.944946 219.353714,314.881775 212.500183,315.630371   C212.000244,319.970276 211.568573,324.413849 210.961548,328.833374   C209.904434,336.529663 210.948730,337.563416 219.306625,336.576080   C220.903564,331.708313 220.746475,326.486511 221.731140,320.601440  M203.760117,465.638000   C203.612305,463.698944 204.660629,461.739288 203.666931,459.649231   C202.756912,459.400940 201.813797,459.132874 200.865036,458.886597   C194.908325,457.340302 194.809937,457.426941 194.208817,463.511047   C193.866577,466.975006 193.817200,470.527466 192.957825,473.865509   C191.914642,477.917450 193.516830,479.379242 197.186646,479.710052   C198.476974,479.826355 199.757858,480.047791 201.236237,480.247284   C203.209824,475.727753 202.950180,471.008972 203.760117,465.638000  M221.227722,245.976608   C220.580688,251.071228 219.886124,256.160431 219.301529,261.262177   C218.828674,265.388763 222.248108,264.964203 224.636292,265.550842   C227.244904,266.191528 228.625366,265.186005 228.897110,262.314087   C229.302795,258.026947 230.093948,253.777634 230.630432,249.500854   C230.858261,247.684464 231.115433,245.447403 228.724579,245.021790   C226.322693,244.594238 223.674118,241.609100 221.227722,245.976608  M232.819870,156.819534   C234.426041,158.264236 236.552338,157.985199 238.440063,158.470123   C240.381775,158.968933 241.663925,158.212296 241.933701,156.087433   C242.601212,150.829590 243.677383,145.584976 243.831528,140.312881   C243.953949,136.126038 239.652206,137.478470 237.323654,136.608795   C234.798416,135.665649 234.420029,137.831909 234.227783,139.792557   C233.694351,145.232529 233.109314,150.667435 232.819870,156.819534  M249.295944,87.423363   C252.824448,82.336487 251.238586,76.451469 252.556198,70.620529   C249.084442,70.403496 245.495209,67.785828 243.661118,70.504845   C241.093903,74.310699 241.188843,79.453789 241.588669,83.961136   C241.897491,87.442345 246.161179,86.295670 249.295944,87.423363  M673.741943,262.791473   C675.275513,264.712921 676.092407,267.182007 678.383362,268.896667   C681.473267,265.598938 683.870483,262.006104 685.599670,257.646301   C679.465027,253.816971 673.026489,252.858429 665.969543,252.442688   C667.926758,256.469025 671.064270,259.018646 673.741943,262.791473  M207.353653,222.119705   C204.665970,219.636826 202.699219,216.290710 198.753571,214.583618   C197.556717,219.692184 195.833588,224.226807 195.557098,229.388428   C201.262680,228.826324 206.268723,228.333130 211.377151,227.829849   C210.827789,225.249710 209.021255,224.157852 207.353653,222.119705  M542.836975,271.089142   C541.526733,271.763794 538.867004,271.826447 540.582336,274.238129   C542.808899,277.368530 544.888245,280.760040 548.778381,283.132996   C550.196899,278.139526 551.938904,273.734192 551.997314,268.771973   C548.727905,268.773285 546.162720,269.981232 542.836975,271.089142  M197.736923,277.250885   C197.828430,282.096802 200.177582,286.199799 202.001221,291.469940   C203.826843,286.417786 205.618027,282.399689 206.192215,277.909363   C203.525742,276.616333 200.891937,276.781219 197.736923,277.250885  M212.936005,91.857193   C220.064987,91.322762 227.077301,94.311584 234.249420,92.623619   C225.894012,88.983864 217.312363,90.351837 208.792404,90.388168   C208.770950,90.802704 208.749496,91.217239 208.728043,91.631775   C209.859436,91.710464 210.990829,91.789154 212.936005,91.857193  M211.234955,127.048378   C210.557480,127.288414 209.476166,126.944130 209.494385,128.721497   C216.313934,127.677628 223.110092,130.373169 229.917221,128.374878   C224.052933,125.914925 218.036057,126.118713 211.234955,127.048378  M215.436310,162.223694   C211.693115,162.560120 207.772385,161.512375 204.217880,163.803894   C211.315994,162.958694 218.240173,165.616318 226.272263,165.224625   C222.960907,161.241028 219.430161,162.681839 215.436310,162.223694  M174.725784,448.175446   C172.671051,448.175446 170.616318,448.175446 168.561600,448.175446   C168.561096,448.761108 168.560593,449.346771 168.560089,449.932434   C175.853836,448.740845 182.972885,451.324158 190.318054,449.943481   C185.620697,447.671539 180.587936,448.310608 174.725784,448.175446  M182.554565,342.263062   C189.523300,342.866302 196.492020,343.469543 203.460754,344.072754   C203.493713,343.449463 203.526672,342.826172 203.559631,342.202850   C196.700424,340.114288 189.665024,340.826385 182.554565,342.263062  M215.224564,198.153519   C210.297134,198.153519 205.369720,198.153519 200.442291,198.153519   C200.462524,198.728592 200.482742,199.303650 200.502960,199.878723   C207.472122,199.043121 214.370300,201.576218 222.397629,200.515137   C220.064743,197.810471 217.943848,198.484726 215.224564,198.153519  M199.052139,235.676559   C204.989441,234.839996 210.953705,237.823761 217.839783,236.095306   C213.262894,233.496048 201.067703,233.226288 195.556412,235.085907   C196.269196,236.135727 197.338364,235.599777 199.052139,235.676559  M209.661758,286.116882   C208.851654,290.503479 206.460648,294.603973 206.849518,299.510986   C209.899643,297.906036 211.083969,292.772461 211.512741,279.391388   C210.978195,281.384369 210.443634,283.377380 209.661758,286.116882  M174.620514,414.014008   C178.982727,414.014008 183.344940,414.014008 187.707138,414.014008   C182.849762,411.610901 177.895889,411.979858 172.981232,412.944489   C172.456223,413.047516 173.367844,413.804047 174.620514,414.014008  M196.001068,270.682892   C200.113602,270.798920 204.234680,272.506195 208.348511,270.829956   C204.102844,269.374359 199.864761,268.322235 196.001068,270.682892  M183.736038,492.130005   C182.807526,491.999176 181.875870,491.270020 180.566193,492.480011   C181.612717,495.042053 182.717743,497.747314 183.822754,500.452606   C184.038040,497.575500 187.176834,494.925659 183.736038,492.130005  M179.438385,486.560883   C181.678696,486.024323 184.354660,488.723419 186.638031,485.558319   C183.546707,483.355377 180.356903,484.212891 177.359024,483.916718   C176.960464,485.565338 177.938492,485.941162 179.438385,486.560883  M240.230499,129.105225   C238.620483,128.735077 236.807251,127.362267 235.651352,130.169800   C237.160721,132.334244 239.438416,132.019180 241.305649,131.372192   C242.777069,130.862350 241.674988,129.886871 240.230499,129.105225  M226.245377,238.747833   C227.125824,238.594864 228.241791,239.112198 228.865784,237.626404   C227.048035,236.063766 225.157074,235.087601 222.681351,236.151321   C222.539963,238.600769 224.157990,238.533951 226.245377,238.747833  M234.886398,164.466888   C233.697052,164.488449 232.228378,163.731812 231.585388,165.914230   C233.505203,167.518066 235.445541,168.247070 238.276810,166.243881   C237.100677,165.559723 236.303391,165.095947 234.886398,164.466888  M195.868240,376.920776   C194.689407,377.009308 193.425537,375.868011 192.102097,377.301575   C194.363708,378.879395 196.364258,380.748749 199.579971,378.906952   C199.019516,378.186676 198.810074,377.676880 198.440536,377.498199   C197.865631,377.220306 197.181900,377.167419 195.868240,376.920776  M191.731064,486.247284   C193.176743,489.305939 193.412643,489.361969 197.280609,487.290344   C195.551559,486.339020 194.155258,485.262817 191.731064,486.247284  M209.011307,379.161133   C207.534470,378.742371 205.937103,377.546082 204.782257,379.843140   C205.967911,382.127502 208.118866,381.961151 209.898468,381.404205   C211.454758,380.917114 210.383820,379.972076 209.011307,379.161133  M231.641693,200.617004   C230.033951,200.439224 228.262222,199.001678 226.812378,201.117752   C230.469772,203.665314 231.607330,203.597900 231.641693,200.617004  M220.813965,274.473907   C222.008087,274.510529 223.425049,275.136200 223.981842,273.201782   C222.593826,271.665588 220.767212,270.613861 219.017288,271.933075   C217.626160,272.981812 219.271591,273.721558 220.813965,274.473907  M212.448349,343.214050   C211.508316,343.098602 210.478714,342.349731 209.673309,343.352509   C209.222321,343.914001 209.384567,344.777313 209.984573,345.104980   C211.610245,345.992798 213.295502,346.188538 214.976746,345.201385   C214.603531,343.961426 213.855164,343.637604 212.448349,343.214050  M219.182434,308.440369   C217.378128,307.367645 215.580521,306.541260 213.274704,308.675385   C215.680069,309.777588 217.496002,311.029175 219.182434,308.440369  z"/>
<path fill="#ffffff" opacity="1.000000" stroke="none" d=" M284.681152,156.001541   C283.587311,149.004028 286.269897,142.881699 287.240387,136.526138   C288.293762,129.627426 289.637665,122.773399 290.814178,115.892921   C291.040497,114.569313 291.078766,113.213661 292.632141,112.335464   C295.978394,112.884491 296.544525,115.765755 297.335968,118.444046   C299.875671,127.038147 302.402130,135.636169 305.233826,145.251740   C307.825806,139.576706 307.961945,134.485641 308.636749,129.549057   C309.198853,125.436935 309.379944,121.272575 309.723877,117.130859   C309.848816,115.626076 309.840546,113.863243 311.711548,113.560570   C313.659302,113.245483 314.636871,114.804665 315.429352,116.317039   C316.490875,118.342796 316.354797,120.558746 316.094757,122.688225   C314.905579,132.427719 313.906433,142.213821 311.296600,151.706161   C310.411652,154.924759 310.200684,159.724045 306.010193,159.749985   C302.171265,159.773788 301.828949,155.142258 300.863098,152.081894   C298.922028,145.931839 297.223022,139.705383 294.437408,133.468735   C293.375061,138.905975 292.329712,144.346634 291.241852,149.778763   C290.817566,151.897491 290.528748,154.084702 289.769958,156.085922   C288.459106,159.543091 286.667084,159.831223 284.681152,156.001541  z"/>
<path fill="#ffffff" opacity="1.000000" stroke="none" d=" M356.439087,162.174194   C354.306671,159.426849 355.136627,156.782822 355.852661,154.241547   C357.620148,147.968674 358.807678,141.637497 358.816376,135.083908   C358.819031,133.083481 358.428925,130.111862 361.540253,130.180527   C364.027100,130.235428 364.844574,132.729477 365.131714,134.940674   C365.343506,136.571625 365.173309,138.252213 365.173309,140.791000   C367.273895,137.769501 368.745392,135.305496 370.559174,133.126358   C373.197510,129.956543 375.861603,130.143982 378.323212,133.447861   C379.862000,135.513199 380.839111,137.934525 380.657379,140.436340   C380.174713,147.081345 379.164307,153.674698 376.606384,159.887329   C375.759644,161.943954 374.871796,164.986115 371.951080,164.067841   C369.201477,163.203339 370.543182,160.311890 370.860718,158.353790   C371.807983,152.511627 374.625061,146.970490 373.731140,140.249161   C371.190704,141.572830 370.649445,143.938187 369.624695,145.776169   C366.951660,150.570648 364.573059,155.528778 361.922943,160.336700   C360.837708,162.305618 359.701080,164.925034 356.439087,162.174194  z"/>
<path fill="#ffffff" opacity="1.000000" stroke="none" d=" M430.234680,157.106079   C430.415863,162.440475 433.568054,161.813919 436.909241,161.063416   C438.990936,160.595840 441.800385,158.604614 442.855743,161.918106   C443.792603,164.859436 440.989807,166.204483 438.748352,167.306702   C431.904480,170.672180 424.582367,166.668289 423.746094,158.943130   C422.919556,151.308060 425.264679,144.479935 430.086700,138.587875   C432.386841,135.777313 435.334900,133.860321 439.251068,135.206375   C442.706573,136.394073 446.201172,142.165039 446.256317,146.527924   C446.304138,150.312317 444.387848,152.724380 441.019684,154.213272   C438.984283,155.113037 436.874847,155.275848 434.698761,155.298935   C433.119934,155.315674 431.279724,154.734863 430.234680,157.106079  M433.086639,148.134552   C434.024261,148.326050 434.963074,148.680267 435.899292,148.673630   C437.614868,148.661514 439.255920,148.232727 439.620514,146.202286   C439.874969,144.784988 439.305542,143.477997 438.006287,142.894592   C436.005310,141.996094 435.015320,143.673218 434.045380,144.933426   C433.471893,145.678452 433.225616,146.675308 433.086639,148.134552  z"/>
<path fill="#ffffff" opacity="1.000000" stroke="none" d=" M387.792725,165.384766   C383.383270,162.784866 382.405914,158.625610 382.321350,154.492294   C382.182556,147.708786 384.134491,141.332321 388.399078,135.950500   C393.113129,130.001495 399.202240,130.890060 402.407013,137.795670   C405.811523,145.131653 401.849457,159.580139 395.147858,163.960953   C393.058655,165.326630 390.803986,166.459991 387.792725,165.384766  M389.380768,157.203781   C390.180237,158.748917 391.205597,158.284149 392.204865,157.477631   C396.507477,154.004944 398.218414,144.440353 395.212677,138.774155   C390.256500,143.874054 388.652283,149.788971 389.380768,157.203781  z"/>
<path fill="#ffffff" opacity="1.000000" stroke="none" d=" M337.385468,147.931900   C336.082581,152.796844 333.910095,156.659988 330.205750,159.519424   C325.386932,163.239090 320.358826,161.812134 318.180145,156.155258   C315.313202,148.711517 318.557922,135.596725 324.579742,130.288818   C329.051788,126.346947 334.288361,127.371231 336.816040,132.854309   C339.005768,137.604218 338.673248,142.569290 337.385468,147.931900  M323.631805,148.743637   C323.293610,150.767914 323.392365,152.664978 325.111115,154.111938   C330.966461,150.639038 333.464203,141.940811 330.373688,134.638489   C325.892914,138.158844 324.786255,143.041718 323.631805,148.743637  z"/>
<path fill="#ffffff" opacity="1.000000" stroke="none" d=" M405.347778,137.503937   C409.546692,135.434784 412.636261,133.156937 412.005920,128.023483   C411.818878,126.500214 412.066559,124.324623 414.170959,124.082581   C416.550995,123.808838 417.734985,125.696243 418.215546,127.709396   C418.629883,129.445099 418.568420,131.294373 418.733154,133.284760   C419.997498,133.684875 421.243713,134.065506 422.480621,134.474442   C423.846619,134.926071 424.887390,135.765808 424.850800,137.297852   C424.818634,138.642624 423.711487,139.515594 422.604767,139.647568   C416.325195,140.396530 415.568481,145.301712 414.684204,150.035370   C414.147919,152.906143 412.900665,155.723236 413.389069,158.625534   C415.376862,159.962982 416.803497,158.573029 418.323181,158.237045   C419.509033,157.974869 420.659821,157.716385 421.514282,158.810364   C422.523956,160.103104 421.853058,161.320450 421.140717,162.475021   C418.955872,166.016312 413.539978,168.265961 410.378296,166.714706   C406.337830,164.732269 405.294861,161.314850 406.339569,157.093063   C406.777466,155.323608 407.150757,153.538147 407.551575,151.759537   C408.452606,147.761490 410.874878,143.531219 405.512024,140.593979   C404.711273,140.155411 404.719208,138.829315 405.347778,137.503937  z"/>
<path fill="#ffffff" opacity="1.000000" stroke="none" d=" M459.922363,169.334320   C453.754272,170.779938 448.461945,168.804688 446.199585,164.478775   C445.384766,162.920837 444.863525,161.218323 446.316193,159.894730   C447.775757,158.564819 449.030548,159.847961 450.251282,160.720734   C451.186981,161.389679 452.145691,162.209427 453.213867,162.468430   C454.945343,162.888275 457.049713,163.403595 458.180481,161.466095   C459.245575,159.641068 457.569031,158.438248 456.511780,157.214981   C456.080444,156.715942 455.535675,156.316299 455.055145,155.858185   C447.617920,148.768341 448.903046,141.377792 458.284576,137.275146   C462.429596,135.462479 465.392883,136.650208 467.049927,140.878769   C467.652496,142.416458 468.381042,144.146667 466.939697,145.543976   C465.689911,146.755600 464.487152,145.630508 463.359833,144.986221   C461.214294,143.760010 459.413483,144.556244 458.079712,146.221466   C456.351288,148.379395 458.087158,149.856476 459.471130,151.311646   C460.834930,152.745544 462.429871,154.027115 463.510895,155.650238   C467.409729,161.504272 466.404510,165.473145 459.922363,169.334320  z"/>
<path fill="#ffffff" opacity="1.000000" stroke="none" d=" M489.666870,201.144882   C490.513580,191.448639 496.478119,186.550964 504.981293,188.090179   C507.095917,188.472992 508.841522,189.215759 509.181183,191.629837   C510.128479,198.362122 511.367798,205.072601 511.901733,211.838272   C512.434387,218.587555 509.455719,220.547607 502.981354,218.372818   C493.762360,215.276077 489.777008,210.257675 489.666870,201.144882  z"/>
<path fill="#ffffff" opacity="1.000000" stroke="none" d=" M657.622742,186.139496   C657.027344,180.769379 656.457703,175.836090 655.908325,170.900558   C655.586548,168.008743 656.939026,166.294266 659.586853,165.180740   C665.006714,162.901474 670.562378,163.847260 674.208557,167.886215   C678.271851,172.387238 679.443970,180.697083 676.672913,185.573822   C674.489075,189.417023 671.307434,192.337982 667.586060,194.568573   C662.409119,197.671631 659.836426,196.469376 658.300964,190.492172   C657.973022,189.215698 657.865845,187.882492 657.622742,186.139496  z"/>
<path fill="#ffffff" opacity="1.000000" stroke="none" d=" M553.536499,163.235016   C553.665039,166.333145 551.950623,167.859268 549.770752,168.908646   C543.197021,172.073303 536.586853,175.162674 529.981201,178.260605   C528.116211,179.135239 526.117676,179.856171 524.522095,177.934433   C522.800659,175.860977 523.027649,173.446533 524.616150,171.506317   C530.572998,164.230392 538.478149,160.322800 547.679260,159.149796   C550.217224,158.826248 552.588623,159.992798 553.536499,163.235016  z"/>
<path fill="#ffffff" opacity="1.000000" stroke="none" d=" M620.161804,161.073242   C616.348328,160.257767 612.924438,159.630905 609.571960,158.736069   C607.057007,158.064758 604.858459,156.715942 604.935181,153.686920   C605.012939,150.613235 607.349548,149.352402 609.894592,149.000290   C618.985046,147.742630 627.324646,149.999084 634.873535,155.097610   C636.956055,156.504105 637.905396,158.747589 636.891724,161.212997   C635.841187,163.768036 633.454834,163.473083 631.314941,163.131042   C627.723328,162.557007 624.158264,161.816956 620.161804,161.073242  z"/>
<path fill="#ffffff" opacity="1.000000" stroke="none" d=" M540.109863,187.117340   C543.629333,184.552261 546.891785,184.186325 549.910950,187.087402   C552.304565,189.387405 552.944458,192.219421 551.422974,195.297180   C549.910400,198.356720 547.297058,199.586166 544.005005,199.195862   C538.405273,198.531982 536.504211,193.072189 540.109863,187.117340  z"/>
<path fill="#ffffff" opacity="1.000000" stroke="none" d=" M614.226318,183.730042   C612.698792,179.932861 613.145447,176.812454 616.274353,174.597641   C618.764038,172.835266 621.545166,172.785248 624.176636,174.467499   C626.836792,176.167999 627.709900,178.711761 627.255493,181.747177   C626.846924,184.475967 625.157898,186.265045 622.623596,187.010361   C619.276611,187.994690 616.442444,187.030594 614.226318,183.730042  z"/>
</svg>